<?xml version="1.0" standalone="no"?>
<!DOCTYPE svg PUBLIC "-//W3C//DTD SVG 20010904//EN"
 "http://www.w3.org/TR/2001/REC-SVG-20010904/DTD/svg10.dtd">
<svg version="1.0" xmlns="http://www.w3.org/2000/svg"
 width="2048.000000pt" height="2048.000000pt" viewBox="0 0 2048.000000 2048.000000"
 preserveAspectRatio="xMidYMid meet">

<g transform="translate(0.000000,2048.000000) scale(0.100000,-0.100000)"
fill="#000000" stroke="none">
<path d="M8367 14853 c-13 -12 -7 -416 8 -583 13 -147 49 -392 60 -411 3 -3
-66 -23 -153 -44 -209 -50 -497 -133 -694 -200 -89 -30 -163 -53 -165 -52 -8
8 -143 334 -172 415 -35 96 -61 121 -61 59 0 -46 35 -236 72 -390 16 -71 26
-132 22 -136 -5 -4 -80 -36 -168 -70 -268 -106 -650 -286 -902 -425 l-82 -45
-64 92 c-64 91 -144 221 -249 406 -85 149 -102 131 -48 -50 38 -127 101 -290
168 -429 l50 -105 -32 -19 c-18 -11 -96 -61 -174 -112 -141 -92 -173 -124
-173 -174 0 -31 26 -75 56 -95 51 -33 93 -18 272 100 90 59 165 105 166 104 2
-2 22 -32 45 -67 96 -143 289 -348 446 -474 114 -91 258 -183 396 -253 l130
-66 -198 -98 c-109 -54 -263 -135 -342 -179 l-144 -80 -71 20 c-202 56 -377
154 -656 367 -216 165 -398 327 -617 549 -173 174 -214 211 -220 196 -8 -21
29 -92 125 -239 272 -418 648 -757 1064 -959 81 -39 147 -73 147 -76 0 -3 -70
-52 -157 -110 -86 -58 -200 -138 -254 -178 l-97 -73 -103 25 c-246 59 -499
207 -863 503 -292 238 -693 682 -900 996 -36 55 -65 73 -65 42 0 -8 28 -70 61
-138 189 -376 373 -632 663 -922 191 -190 299 -279 511 -418 147 -96 258 -154
394 -207 l93 -37 -93 -79 c-52 -43 -144 -122 -206 -175 l-111 -97 -78 -7
c-108 -11 -335 0 -424 19 -115 25 -299 82 -412 127 -318 126 -721 354 -999
565 -99 75 -113 82 -124 64 -9 -14 132 -166 257 -277 441 -393 988 -651 1461
-688 48 -4 87 -10 87 -13 0 -4 -68 -74 -152 -157 -254 -251 -415 -453 -475
-597 -23 -54 -27 -78 -27 -163 -1 -89 2 -106 27 -156 30 -62 107 -141 177
-182 25 -14 86 -39 135 -56 161 -53 239 -62 615 -71 366 -8 391 -11 503 -63
31 -14 134 -68 229 -120 595 -326 1150 -561 1763 -748 879 -268 1698 -389
2625 -389 960 0 1829 142 2715 444 595 202 1239 521 1725 854 419 287 677 499
1023 841 227 225 237 240 194 313 -33 57 -291 342 -406 449 -50 47 -91 88 -91
92 0 4 18 7 39 7 121 0 417 72 650 158 496 182 993 553 1340 1000 24 30 31 46
23 54 -7 7 -45 -18 -124 -84 -318 -265 -590 -444 -928 -613 -427 -214 -745
-310 -1060 -322 l-155 -6 -50 45 c-61 55 -230 189 -353 283 l-93 69 139 28
c553 109 1084 452 1497 968 81 100 290 406 344 501 17 31 31 63 31 73 0 38
-41 6 -150 -119 -211 -241 -657 -668 -667 -638 -13 39 -433 381 -695 567 l-68
48 59 77 c89 117 209 300 295 449 129 224 149 272 116 272 -4 0 -57 -63 -115
-141 -137 -180 -271 -337 -397 -465 l-99 -100 -117 77 c-146 96 -413 249 -582
334 l-128 64 46 108 c25 59 74 185 108 278 56 151 61 172 48 185 -18 18 -26
10 -81 -90 -51 -92 -242 -398 -252 -404 -5 -3 -56 16 -113 43 -139 65 -327
145 -521 221 -94 37 -156 67 -154 74 23 59 92 285 111 363 55 220 104 526 97
611 -1 14 -27 16 -35 3 -3 -5 -21 -62 -40 -127 -91 -314 -283 -804 -316 -804
-6 0 -25 6 -43 13 -52 22 -381 123 -522 160 -109 30 -241 60 -555 127 -25 6
-101 19 -169 30 -68 11 -126 22 -128 24 -3 2 2 49 11 103 12 75 56 467 56 498
0 3 -8 5 -18 5 -15 0 -25 -30 -61 -177 -45 -184 -106 -401 -113 -409 -3 -2
-52 3 -109 11 -178 24 -486 54 -673 64 -98 6 -180 12 -182 14 -2 2 -8 97 -14
213 -9 196 -34 485 -46 547 -4 18 -12 27 -24 27 -15 0 -19 -10 -24 -62 -12
-137 -56 -694 -56 -710 0 -17 -17 -18 -214 -18 -449 0 -982 -49 -1420 -131
-87 -16 -160 -28 -162 -26 -19 18 -149 576 -185 792 -27 165 -38 193 -62 168z
m2013 -1058 c0 -64 -63 -620 -86 -765 -25 -155 -72 -330 -109 -406 l-35 -72
-112 -6 c-178 -11 -340 -24 -510 -42 l-156 -17 -48 39 c-140 115 -327 394
-462 691 -101 221 -180 439 -166 453 10 9 380 72 554 94 283 36 664 61 998 64
l132 2 0 -35z m628 0 c190 -18 411 -43 440 -50 27 -7 28 -5 -40 -210 -145
-438 -330 -834 -455 -971 l-28 -31 -135 7 c-74 5 -195 9 -269 9 -155 1 -142
-18 -92 146 73 238 141 747 141 1057 l0 71 146 -7 c80 -4 211 -13 292 -21z
m812 -110 c176 -32 432 -87 560 -121 272 -73 580 -165 599 -180 4 -4 -104
-190 -177 -304 -200 -311 -453 -571 -678 -695 l-51 -28 -174 36 c-197 42 -426
80 -574 96 -55 6 -114 14 -132 17 l-32 5 44 69 c153 239 289 597 375 988 l34
152 31 -5 c16 -2 95 -16 175 -30z m-3305 -147 c112 -372 329 -782 537 -1021
40 -45 55 -69 46 -72 -7 -3 -103 -23 -213 -45 -110 -22 -253 -52 -317 -67
l-118 -26 -87 58 c-263 174 -449 365 -638 655 -84 127 -198 330 -191 337 7 7
256 90 386 129 142 42 527 142 551 143 12 1 23 -24 44 -91z m4940 -328 c157
-62 418 -178 439 -193 14 -11 7 -24 -65 -117 -277 -356 -564 -615 -802 -725
-141 -65 -129 -65 -339 3 -102 33 -218 68 -257 78 -39 10 -70 21 -69 25 2 3
48 42 103 86 230 183 454 472 639 825 l67 126 82 -29 c45 -17 136 -52 202 -79z
m-6045 -25 c47 -111 112 -237 175 -335 119 -185 322 -407 490 -535 50 -38 94
-72 98 -76 5 -4 -76 -35 -180 -69 -103 -35 -274 -96 -380 -136 l-192 -72 -76
19 c-256 64 -565 260 -837 532 -113 113 -242 267 -231 277 16 16 261 145 419
221 259 124 653 290 665 280 4 -3 26 -51 49 -106z m6840 -345 c183 -97 238
-129 433 -248 l158 -97 -48 -43 c-93 -83 -279 -225 -423 -320 -260 -174 -518
-291 -686 -313 l-89 -11 -115 54 c-63 30 -162 74 -219 98 -70 30 -99 47 -90
52 206 121 374 252 528 414 118 124 260 309 327 424 35 60 50 77 62 72 10 -3
82 -40 162 -82z m848 -522 c201 -144 617 -475 637 -508 7 -12 -109 -94 -260
-183 -300 -178 -618 -281 -910 -293 l-130 -6 -110 72 c-60 40 -183 115 -273
165 l-164 93 66 22 c37 12 137 57 224 100 246 122 524 318 718 504 55 52 103
95 107 96 5 0 48 -28 95 -62z m-4583 -9 c268 -23 561 -101 779 -209 527 -259
914 -694 1100 -1237 82 -240 116 -455 116 -726 -1 -408 -96 -756 -301 -1102
-340 -571 -898 -941 -1569 -1039 -345 -51 -688 -17 -1040 101 -555 186 -999
578 -1255 1108 -364 754 -253 1680 277 2310 253 301 560 520 928 660 290 111
652 161 965 134z m1196 -108 c321 -66 522 -117 809 -208 932 -292 1886 -833
2595 -1472 92 -83 387 -375 482 -479 85 -92 86 -92 67 -114 -10 -11 -95 -93
-189 -181 -499 -471 -1043 -851 -1665 -1162 -672 -337 -1422 -578 -2190 -704
-278 -45 -853 -111 -866 -98 -2 2 27 9 65 15 105 18 299 76 445 135 542 218
982 633 1241 1172 150 314 222 613 232 975 9 314 -28 564 -123 842 -117 341
-265 592 -506 858 -121 134 -231 227 -415 351 -81 54 -142 99 -137 99 6 0 76
-13 155 -29z m-2697 -37 c-416 -260 -758 -670 -938 -1124 -96 -245 -148 -478
-166 -759 -58 -869 379 -1710 1130 -2176 124 -76 328 -173 461 -219 110 -37
339 -96 373 -96 11 0 17 -2 14 -5 -8 -9 -340 14 -578 40 -719 77 -1412 243
-2130 510 -379 141 -856 362 -1145 531 -213 124 -424 409 -560 758 -108 275
-114 539 -19 777 19 48 34 93 34 101 0 27 474 390 750 575 631 421 1303 731
2055 948 121 35 292 79 380 99 88 20 216 50 285 65 69 16 129 29 134 30 5 1
-31 -24 -80 -55z m-3845 -2006 c-9 -106 6 -299 30 -402 43 -178 127 -379 232
-555 38 -63 68 -115 66 -115 -1 -1 -144 2 -317 5 -378 8 -521 29 -645 91 -185
94 -169 194 84 498 85 102 535 560 550 560 4 0 3 -37 0 -82z"/>
<path d="M10115 11206 c-99 -21 -185 -48 -185 -59 0 -2 13 -21 30 -42 70 -88
91 -238 49 -350 -29 -77 -104 -156 -187 -197 -62 -31 -74 -33 -167 -33 -87 0
-107 3 -156 26 -30 14 -75 45 -99 68 -24 22 -45 41 -47 41 -12 0 -88 -184
-111 -268 -24 -88 -26 -114 -26 -287 -1 -179 1 -196 27 -288 73 -258 212 -458
426 -616 140 -103 306 -171 494 -201 108 -18 339 -8 437 18 380 101 664 359
789 716 80 227 81 497 5 725 -180 538 -733 861 -1279 747z"/>
<path d="M15575 9131 c-71 -18 -95 -45 -95 -105 0 -25 7 -40 26 -55 24 -19 35
-20 123 -15 218 14 492 -79 790 -268 148 -94 149 -94 173 -70 l21 20 -21 34
c-27 44 -171 186 -241 239 -123 91 -267 160 -419 200 -83 22 -303 35 -357 20z"/>
<path d="M14996 8697 c-54 -54 -26 -118 62 -143 188 -54 389 -189 619 -415
103 -103 134 -119 141 -72 4 29 -76 176 -150 274 -117 155 -298 298 -443 350
-33 12 -92 24 -132 27 -67 4 -73 3 -97 -21z"/>
<path d="M14466 8405 c-40 -21 -55 -44 -56 -83 0 -69 44 -102 135 -102 164 0
340 -96 569 -308 107 -100 133 -111 162 -66 17 25 16 28 -15 92 -118 239 -311
404 -539 463 -92 23 -215 25 -256 4z"/>
<path d="M6114 8266 c-217 -53 -444 -262 -566 -523 -29 -61 -30 -65 -13 -83
10 -11 24 -20 31 -20 7 0 57 44 111 98 200 201 407 342 531 361 28 4 61 16 72
26 46 42 29 123 -31 144 -39 14 -69 13 -135 -3z"/>
<path d="M13713 7985 c-38 -16 -53 -42 -53 -88 0 -60 24 -77 127 -93 104 -15
180 -46 267 -108 78 -56 200 -183 303 -316 108 -141 115 -146 153 -130 41 17
45 45 17 121 -99 263 -264 462 -468 565 -119 59 -272 81 -346 49z"/>
<path d="M7050 7834 c-218 -60 -394 -222 -526 -480 -29 -58 -56 -121 -60 -140
-7 -38 8 -64 36 -64 10 0 73 61 143 138 218 239 361 345 503 374 71 14 109 54
100 107 -3 19 -14 44 -25 54 -26 26 -101 31 -171 11z"/>
<path d="M12669 7611 c-40 -40 -40 -91 -1 -131 22 -22 42 -30 88 -35 79 -10
211 -55 281 -96 139 -82 333 -326 478 -601 62 -118 78 -137 103 -122 34 22 37
40 19 133 -61 316 -234 597 -464 751 -114 77 -281 130 -405 130 -63 0 -72 -3
-99 -29z"/>
<path d="M7965 7590 c-320 -48 -620 -318 -782 -703 -70 -166 -81 -244 -38
-261 28 -10 45 6 111 106 80 123 191 269 273 363 174 195 370 304 549 305 102
0 142 133 54 179 -27 14 -112 20 -167 11z"/>
<path d="M11859 7402 c-24 -21 -31 -36 -31 -64 0 -54 15 -72 103 -125 104 -61
206 -162 289 -283 35 -52 117 -198 180 -325 112 -224 117 -230 148 -233 26 -3
34 1 44 23 25 54 -26 293 -97 458 -108 253 -269 441 -459 537 -95 48 -133 51
-177 12z"/>
<path d="M9040 7349 c-112 -57 -248 -206 -324 -357 -62 -123 -113 -291 -141
-467 -18 -109 -15 -139 15 -155 34 -18 55 4 90 92 49 124 202 434 250 507 57
87 144 177 206 212 28 16 58 37 66 47 52 60 7 152 -75 152 -13 0 -52 -14 -87
-31z"/>
<path d="M10834 7319 c-11 -6 -29 -24 -38 -41 -28 -46 -15 -81 58 -159 134
-141 224 -349 331 -759 35 -132 39 -140 74 -140 47 0 54 19 59 158 9 287 -85
598 -241 798 -100 126 -179 173 -243 143z"/>
<path d="M10258 7295 c-25 -14 -55 -75 -45 -92 3 -5 13 -78 22 -163 24 -227
64 -546 76 -618 11 -64 31 -88 63 -76 19 7 22 17 40 134 40 256 40 537 0 712
-23 103 -83 142 -156 103z"/>
</g>
</svg>
